<?xml version="1.0" encoding="UTF-8" standalone="no"?>
<svg
   id="canvas"
   width="800"
   height="800"
   version="1.1"
   sodipodi:docname="peano-iteration-1.svg"
   inkscape:version="1.1.2 (0a00cf5339, 2022-02-04)"
   inkscape:export-filename="/mnt/ssd/Develop/Develop/wiskunde/linefractals/peano/images/peano-iteration-1a.png"
   inkscape:export-xdpi="90.010109"
   inkscape:export-ydpi="90.010109"
   xmlns:inkscape="http://www.inkscape.org/namespaces/inkscape"
   xmlns:sodipodi="http://sodipodi.sourceforge.net/DTD/sodipodi-0.dtd"
   xmlns="http://www.w3.org/2000/svg"
   xmlns:svg="http://www.w3.org/2000/svg">
  <defs
     id="defs1308" />
  <sodipodi:namedview
     id="namedview1306"
     pagecolor="#ffffff"
     bordercolor="#666666"
     borderopacity="1.0"
     inkscape:pageshadow="2"
     inkscape:pageopacity="0.0"
     inkscape:pagecheckerboard="0"
     showgrid="false"
     inkscape:zoom="2.1825"
     inkscape:cx="-49.942726"
     inkscape:cy="361.05384"
     inkscape:window-width="3840"
     inkscape:window-height="2075"
     inkscape:window-x="0"
     inkscape:window-y="0"
     inkscape:window-maximized="1"
     inkscape:current-layer="canvas" />
  <g
     id="lines"
     style="fill:none;stroke:#000000;stroke-opacity:1">
    <polyline
       points="44.44,755.56 44.44,577.78 133.33,577.78 133.33,755.56 222.22,755.56 222.22,577.78"
       class="undefined"
       id="polyline1270"
       style="fill:none;stroke:#000000;stroke-opacity:1" />
    <polyline
       points="222.22,488.89 222.22,311.11 133.33,311.11 133.33,488.89 44.44,488.89 44.44,311.11"
       class="undefined"
       id="polyline1272"
       style="fill:none;stroke:#000000;stroke-opacity:1" />
    <line
       x1="222.22"
       y1="577.78003"
       x2="222.22"
       y2="488.89001"
       class="connector"
       id="line1274"
       style="fill:none;stroke:#000000;stroke-opacity:1" />
    <polyline
       points="44.44,222.22 44.44,44.44 133.33,44.44 133.33,222.22 222.22,222.22 222.22,44.44"
       class="undefined"
       id="polyline1276"
       style="fill:none;stroke:#000000;stroke-opacity:1" />
    <line
       x1="44.439999"
       y1="311.10999"
       x2="44.439999"
       y2="222.22"
       class="connector"
       id="line1278"
       style="fill:none;stroke:#000000;stroke-opacity:1" />
    <polyline
       points="311.11,44.44 311.11,222.22 400.00,222.22 400.00,44.44 488.89,44.44 488.89,222.22"
       class="undefined"
       id="polyline1280"
       style="fill:none;stroke:#000000;stroke-opacity:1" />
    <line
       x1="222.22"
       y1="44.439999"
       x2="311.10999"
       y2="44.439999"
       class="connector"
       id="line1282"
       style="fill:none;stroke:#000000;stroke-opacity:1" />
    <polyline
       points="488.89,311.11 488.89,488.89 400.00,488.89 400.00,311.11 311.11,311.11 311.11,488.89"
       class="undefined"
       id="polyline1284"
       style="fill:none;stroke:#000000;stroke-opacity:1" />
    <line
       x1="488.89001"
       y1="222.22"
       x2="488.89001"
       y2="311.10999"
       class="connector"
       id="line1286"
       style="fill:none;stroke:#000000;stroke-opacity:1" />
    <polyline
       points="311.11,577.78 311.11,755.56 400.00,755.56 400.00,577.78 488.89,577.78 488.89,755.56"
       class="undefined"
       id="polyline1288"
       style="fill:none;stroke:#000000;stroke-opacity:1" />
    <line
       x1="311.10999"
       y1="488.89001"
       x2="311.10999"
       y2="577.78003"
       class="connector"
       id="line1290"
       style="fill:none;stroke:#000000;stroke-opacity:1" />
    <polyline
       points="577.78,755.56 577.78,577.78 666.67,577.78 666.67,755.56 755.56,755.56 755.56,577.78"
       class="undefined"
       id="polyline1292"
       style="fill:none;stroke:#000000;stroke-opacity:1" />
    <line
       x1="488.89001"
       y1="755.56"
       x2="577.78003"
       y2="755.56"
       class="connector"
       id="line1294"
       style="fill:none;stroke:#000000;stroke-opacity:1" />
    <polyline
       points="755.56,488.89 755.56,311.11 666.67,311.11 666.67,488.89 577.78,488.89 577.78,311.11"
       class="undefined"
       id="polyline1296"
       style="fill:none;stroke:#000000;stroke-opacity:1" />
    <line
       x1="755.56"
       y1="577.78003"
       x2="755.56"
       y2="488.89001"
       class="connector"
       id="line1298"
       style="fill:none;stroke:#000000;stroke-opacity:1" />
    <polyline
       points="577.78,222.22 577.78,44.44 666.67,44.44 666.67,222.22 755.56,222.22 755.56,44.44"
       class="undefined"
       id="polyline1300"
       style="fill:none;stroke:#000000;stroke-opacity:1" />
    <line
       x1="577.78003"
       y1="311.10999"
       x2="577.78003"
       y2="222.22"
       class="connector"
       id="line1302"
       style="fill:none;stroke:#000000;stroke-opacity:1" />
  </g>
  <g
     id="lines-3"
     style="fill:none;stroke:#ff0000;stroke-width:11.97524119;stroke-miterlimit:4;stroke-dasharray:none;stroke-opacity:0.69351089"
     transform="matrix(0.3340225,0,0,0.3340225,-0.49396076,533.27596)">
    <polyline
       points="133.33,666.67 133.33,133.33 400.00,133.33 400.00,666.67 666.67,666.67 666.67,133.33"
       class="undefined"
       id="polyline878"
       style="fill:none;stroke:#ff0000;stroke-width:11.97524119;stroke-miterlimit:4;stroke-dasharray:none;stroke-opacity:0.69351089" />
  </g>
</svg>
